<svg id="visual" viewBox="0 0 960 300" width="960" height= "300" xmlns="http://www.w3.org/2000/svg" xmlns:xlink="http://www.w3.org/1999/xlink" version="1.1"><rect x="0" y="0" width="960" height="300" fill="#001220"></rect><path d="M0 120L22.8 120.3C45.7 120.7 91.3 121.3 137 116.7C182.7 112 228.3 102 274 101C319.7 100 365.3 108 411.2 106.2C457 104.3 503 92.7 548.8 91.7C594.7 90.7 640.3 100.3 686 105.7C731.7 111 777.3 112 823 114.2C868.7 116.3 914.3 119.7 937.2 121.3L960 123L960 0L937.2 0C914.3 0 868.7 0 823 0C777.3 0 731.7 0 686 0C640.3 0 594.7 0 548.8 0C503 0 457 0 411.2 0C365.3 0 319.7 0 274 0C228.3 0 182.7 0 137 0C91.3 0 45.7 0 22.8 0L0 0Z" fill="#4a1b8c"></path><path d="M0 101L22.8 95.7C45.7 90.3 91.3 79.7 137 76.7C182.7 73.7 228.3 78.3 274 79.3C319.7 80.3 365.3 77.7 411.2 77.3C457 77 503 79 548.8 79.2C594.7 79.3 640.3 77.7 686 76.8C731.7 76 777.3 76 823 74.5C868.7 73 914.3 70 937.2 68.5L960 67L960 0L937.2 0C914.3 0 868.7 0 823 0C777.3 0 731.7 0 686 0C640.3 0 594.7 0 548.8 0C503 0 457 0 411.2 0C365.3 0 319.7 0 274 0C228.3 0 182.7 0 137 0C91.3 0 45.7 0 22.8 0L0 0Z" fill="#4f298d"></path><path d="M0 77L22.8 74C45.7 71 91.3 65 137 65.5C182.7 66 228.3 73 274 73.2C319.7 73.3 365.3 66.7 411.2 64.5C457 62.3 503 64.7 548.8 66.5C594.7 68.3 640.3 69.7 686 67.8C731.7 66 777.3 61 823 60C868.7 59 914.3 62 937.2 63.5L960 65L960 0L937.2 0C914.3 0 868.7 0 823 0C777.3 0 731.7 0 686 0C640.3 0 594.7 0 548.8 0C503 0 457 0 411.2 0C365.3 0 319.7 0 274 0C228.3 0 182.7 0 137 0C91.3 0 45.7 0 22.8 0L0 0Z" fill="#54358d"></path><path d="M0 32L22.8 34.5C45.7 37 91.3 42 137 41.5C182.7 41 228.3 35 274 33.5C319.7 32 365.3 35 411.2 37.5C457 40 503 42 548.8 42.8C594.7 43.7 640.3 43.3 686 44C731.7 44.7 777.3 46.3 823 44C868.7 41.7 914.3 35.3 937.2 32.2L960 29L960 0L937.2 0C914.3 0 868.7 0 823 0C777.3 0 731.7 0 686 0C640.3 0 594.7 0 548.8 0C503 0 457 0 411.2 0C365.3 0 319.7 0 274 0C228.3 0 182.7 0 137 0C91.3 0 45.7 0 22.8 0L0 0Z" fill="#59408d"></path><path d="M0 14L22.8 15.8C45.7 17.7 91.3 21.3 137 21.5C182.7 21.7 228.3 18.3 274 17.2C319.7 16 365.3 17 411.2 19.3C457 21.7 503 25.3 548.8 27.3C594.7 29.3 640.3 29.7 686 29C731.7 28.3 777.3 26.7 823 27.7C868.7 28.7 914.3 32.3 937.2 34.2L960 36L960 0L937.2 0C914.3 0 868.7 0 823 0C777.3 0 731.7 0 686 0C640.3 0 594.7 0 548.8 0C503 0 457 0 411.2 0C365.3 0 319.7 0 274 0C228.3 0 182.7 0 137 0C91.3 0 45.7 0 22.8 0L0 0Z" fill="#4A1B8C"></path></svg>