<svg id="visual" viewBox="0 0 960 300" width="1000" height="300" xmlns="http://www.w3.org/2000/svg" xmlns:xlink="http://www.w3.org/1999/xlink" version="1.1"><rect x="0" y="0" width="960" height="300" fill="#434F73"></rect><path d="M0 112L137 84L274 92L411 85L549 108L686 103L823 118L960 117L960 0L823 0L686 0L549 0L411 0L274 0L137 0L0 0Z" fill="#5f4a8c"></path><path d="M0 84L137 92L274 101L411 75L549 86L686 73L823 83L960 64L960 0L823 0L686 0L549 0L411 0L274 0L137 0L0 0Z" fill="#59408d"></path><path d="M0 53L137 56L274 49L411 68L549 50L686 61L823 71L960 59L960 0L823 0L686 0L549 0L411 0L274 0L137 0L0 0Z" fill="#54358d"></path><path d="M0 52L137 37L274 38L411 36L549 52L686 39L823 57L960 36L960 0L823 0L686 0L549 0L411 0L274 0L137 0L0 0Z" fill="#4f298d"></path><path d="M0 33L137 23L274 16L411 16L549 12L686 20L823 27L960 30L960 0L823 0L686 0L549 0L411 0L274 0L137 0L0 0Z" fill="#4a1b8c"></path></svg>