<svg id="visual" viewBox="0 0 960 300" width="960" height="300" xmlns="http://www.w3.org/2000/svg" xmlns:xlink="http://www.w3.org/1999/xlink" version="1.1"><g stroke-width="1" stroke-linejoin="bevel"><path d="M463.7 114L445.7 172L564.3 195Z" fill="#5b428d" stroke="#5b428d"></path><path d="M564.3 195L510.3 67L463.7 114Z" fill="#5f4a8c" stroke="#5f4a8c"></path><path d="M564.3 195L623 76L510.3 67Z" fill="#5f4a8c" stroke="#5f4a8c"></path><path d="M564.3 195L649 186L623 76Z" fill="#5f4a8c" stroke="#5f4a8c"></path><path d="M431.7 300L564.3 300L564.3 195Z" fill="#56398d" stroke="#56398d"></path><path d="M564.3 195L606 300L649 186Z" fill="#5f4a8c" stroke="#5f4a8c"></path><path d="M445.7 172L431.7 300L564.3 195Z" fill="#4a1b8c" stroke="#4a1b8c"></path><path d="M623 76L554.3 0L510.3 67Z" fill="#54358d" stroke="#54358d"></path><path d="M510.3 67L446.7 0L463.7 114Z" fill="#4e268d" stroke="#4e268d"></path><path d="M564.3 300L606 300L564.3 195Z" fill="#4e268d" stroke="#4e268d"></path><path d="M554.3 0L446.7 0L510.3 67Z" fill="#54358d" stroke="#54358d"></path><path d="M463.7 114L354 74L445.7 172Z" fill="#4e268d" stroke="#4e268d"></path><path d="M445.7 172L332 171L431.7 300Z" fill="#4e268d" stroke="#4e268d"></path><path d="M446.7 0L354 74L463.7 114Z" fill="#5d468c" stroke="#5d468c"></path><path d="M354 74L332 171L445.7 172Z" fill="#502c8d" stroke="#502c8d"></path><path d="M623 76L622 0L554.3 0Z" fill="#5d468c" stroke="#5d468c"></path><path d="M729.7 0L622 0L623 76Z" fill="#5f4a8c" stroke="#5f4a8c"></path><path d="M606 300L711.7 236L649 186Z" fill="#5f4a8c" stroke="#5f4a8c"></path><path d="M768.7 72L729.7 0L623 76Z" fill="#5d468c" stroke="#5d468c"></path><path d="M606 300L710.7 300L711.7 236Z" fill="#502c8d" stroke="#502c8d"></path><path d="M446.7 0L313 0L354 74Z" fill="#4c218c" stroke="#4c218c"></path><path d="M354 74L213.3 83L332 171Z" fill="#54358d" stroke="#54358d"></path><path d="M230.3 300L294 300L199.3 208Z" fill="#4a1b8c" stroke="#4a1b8c"></path><path d="M332 171L294 300L431.7 300Z" fill="#54358d" stroke="#54358d"></path><path d="M768.7 72L623 76L649 186Z" fill="#4c218c" stroke="#4c218c"></path><path d="M768.7 72L649 186L711.7 236Z" fill="#4e268d" stroke="#4e268d"></path><path d="M861.3 133L768.7 72L711.7 236Z" fill="#583e8d" stroke="#583e8d"></path><path d="M313 0L213.3 83L354 74Z" fill="#502c8d" stroke="#502c8d"></path><path d="M199.3 208L294 300L332 171Z" fill="#5f4a8c" stroke="#5f4a8c"></path><path d="M213.3 83L199.3 208L332 171Z" fill="#4e268d" stroke="#4e268d"></path><path d="M313 0L228.3 0L213.3 83Z" fill="#4e268d" stroke="#4e268d"></path><path d="M891.3 222L861.3 133L711.7 236Z" fill="#583e8d" stroke="#583e8d"></path><path d="M768.7 72L838.3 0L729.7 0Z" fill="#52308d" stroke="#52308d"></path><path d="M861.3 133L838.3 0L768.7 72Z" fill="#502c8d" stroke="#502c8d"></path><path d="M872.3 300L891.3 222L711.7 236Z" fill="#4a1b8c" stroke="#4a1b8c"></path><path d="M861.3 133L960 86L838.3 0Z" fill="#5d468c" stroke="#5d468c"></path><path d="M710.7 300L872.3 300L711.7 236Z" fill="#583e8d" stroke="#583e8d"></path><path d="M120.7 107L121.7 196L199.3 208Z" fill="#4e268d" stroke="#4e268d"></path><path d="M199.3 208L114.7 300L230.3 300Z" fill="#52308d" stroke="#52308d"></path><path d="M120.7 107L199.3 208L213.3 83Z" fill="#583e8d" stroke="#583e8d"></path><path d="M118.7 0L120.7 107L213.3 83Z" fill="#4e268d" stroke="#4e268d"></path><path d="M0 201L114.7 300L121.7 196Z" fill="#56398d" stroke="#56398d"></path><path d="M121.7 196L114.7 300L199.3 208Z" fill="#583e8d" stroke="#583e8d"></path><path d="M228.3 0L118.7 0L213.3 83Z" fill="#52308d" stroke="#52308d"></path><path d="M120.7 107L0 201L121.7 196Z" fill="#502c8d" stroke="#502c8d"></path><path d="M960 300L960 190L891.3 222Z" fill="#583e8d" stroke="#583e8d"></path><path d="M891.3 222L960 190L861.3 133Z" fill="#4e268d" stroke="#4e268d"></path><path d="M960 190L960 86L861.3 133Z" fill="#56398d" stroke="#56398d"></path><path d="M872.3 300L960 300L891.3 222Z" fill="#4a1b8c" stroke="#4a1b8c"></path><path d="M960 86L960 0L838.3 0Z" fill="#5b428d" stroke="#5b428d"></path><path d="M0 101L0 201L120.7 107Z" fill="#5f4a8c" stroke="#5f4a8c"></path><path d="M118.7 0L0 101L120.7 107Z" fill="#583e8d" stroke="#583e8d"></path><path d="M0 201L0 300L114.7 300Z" fill="#4e268d" stroke="#4e268d"></path><path d="M118.7 0L0 0L0 101Z" fill="#4a1b8c" stroke="#4a1b8c"></path></g></svg>