<svg id="visual" viewBox="300 100 500 100" width="1440" height="500" xmlns="http://www.w3.org/2000/svg" xmlns:xlink="http://www.w3.org/1999/xlink" version="1.1"><path d="M0 34L87 34L175 40L262 52L349 43L436 34L524 19L611 43L698 28L785 19L873 22L960 34L960 0L873 0L785 0L698 0L611 0L524 0L436 0L349 0L262 0L175 0L87 0L0 0Z" fill="#5f4a8c"></path><path d="M0 163L87 127L175 91L262 127L349 100L436 115L524 91L611 166L698 88L785 160L873 85L960 133L960 32L873 20L785 17L698 26L611 41L524 17L436 32L349 41L262 50L175 38L87 32L0 32Z" fill="#59408d"></path><path d="M0 187L87 157L175 160L262 184L349 157L436 142L524 163L611 232L698 142L785 217L873 166L960 199L960 131L873 83L785 158L698 86L611 164L524 89L436 113L349 98L262 125L175 89L87 125L0 161Z" fill="#54358d"></path><path d="M0 241L87 205L175 196L262 205L349 190L436 175L524 190L611 262L698 163L785 241L873 196L960 220L960 197L873 164L785 215L698 140L611 230L524 161L436 140L349 155L262 182L175 158L87 155L0 185Z" fill="#4f298d"></path><path d="M0 301L87 301L175 301L262 301L349 301L436 301L524 301L611 301L698 301L785 301L873 301L960 301L960 218L873 194L785 239L698 161L611 260L524 188L436 173L349 188L262 203L175 194L87 203L0 239Z" fill="#4a1b8c"></path></svg>
