<svg id="visual" viewBox="0 0 960 300" width="960" height="300" xmlns="http://www.w3.org/2000/svg" xmlns:xlink="http://www.w3.org/1999/xlink" version="1.1"><rect x="0" y="0" width="1440" height="1024" fill="#5F4A8C"></rect><path d="M0 750L206 750L206 789L411 789L411 866L617 866L617 853L823 853L823 837L1029 837L1029 758L1234 758L1234 728L1440 728L1440 748L1440 1025L1440 1025L1234 1025L1234 1025L1029 1025L1029 1025L823 1025L823 1025L617 1025L617 1025L411 1025L411 1025L206 1025L206 1025L0 1025Z" fill="#4A1B8C" stroke-linecap="square" stroke-linejoin="miter"></path></svg>
