<svg id="visual" viewBox="0 0 960 300" width="960" height="300" xmlns="http://www.w3.org/2000/svg" xmlns:xlink="http://www.w3.org/1999/xlink" version="1.1"><rect x="0" y="0" width="960" height="300" fill="#5F4A8C"></rect><path d="M0 104L137 104L137 104L274 104L274 40L411 40L411 99L549 99L549 63L686 63L686 84L823 84L823 80L960 80L960 109L960 0L960 0L823 0L823 0L686 0L686 0L549 0L549 0L411 0L411 0L274 0L274 0L137 0L137 0L0 0Z" fill="#4A1B8C" stroke-linecap="square" stroke-linejoin="miter"></path></svg>